<?xml version="1.0" encoding="UTF-8" standalone="no"?><!DOCTYPE svg PUBLIC "-//W3C//DTD SVG 1.1//EN" "http://www.w3.org/Graphics/SVG/1.1/DTD/svg11.dtd"><svg width="100%" height="100%" viewBox="0 0 300 300" version="1.1" xmlns="http://www.w3.org/2000/svg" xmlns:xlink="http://www.w3.org/1999/xlink" xml:space="preserve" xmlns:serif="http://www.serif.com/" style="fill-rule:evenodd;clip-rule:evenodd;stroke-linejoin:round;stroke-miterlimit:2;"><path d="M300,150c0,-82.787 -67.213,-150 -150,-150c-82.787,0 -150,67.213 -150,150c0,82.787 67.213,150 150,150c82.787,0 150,-67.213 150,-150Z" style="fill:url(#_Linear1);"/><g><path d="M112.619,196.334c4.92,0 9.443,-2.656 11.776,-6.916c7.714,-14.084 24.52,-44.768 24.52,-44.768c-0,-0 16.421,29.952 24.032,43.833c2.335,4.257 6.856,6.912 11.774,6.912l0.003,-0c2.932,-0 5.646,-1.545 7.143,-4.066c1.497,-2.52 1.554,-5.643 0.151,-8.217c-13.559,-24.876 -42.989,-78.87 -42.989,-78.87c-0,-0 -29.991,55.098 -43.577,80.058c-1.373,2.523 -1.316,5.583 0.152,8.052c1.467,2.469 4.127,3.982 6.999,3.982c0.01,0 0.016,0 0.016,0Zm-42.994,-9.397c13.012,-0 24.977,-7.134 31.164,-18.58c11.887,-21.99 30.086,-55.658 30.086,-55.658l-94.324,0c-2.911,0 -5.612,1.512 -7.134,3.993c-1.522,2.481 -1.645,5.574 -0.326,8.168c-0,0.001 -0,0.001 0,0.001c2.067,4.065 6.291,6.633 10.911,6.633l59.667,-0c-0,-0 -0.001,0 -0.001,0.002c-3.173,5.793 -9.252,9.395 -15.857,9.395c-9.078,-0 -22.148,-0 -31.973,-0c-2.91,-0 -5.611,1.512 -7.133,3.993c-1.522,2.481 -1.646,5.574 -0.327,8.168c0,0.001 0,0.001 0.001,0.001c2.066,4.065 6.29,6.632 10.91,6.632l28.94,0c-0,0 -0.001,0.001 -0.001,0.002c-2.856,5.214 -8.328,8.455 -14.273,8.455c-1.23,0 -2.507,0 -3.785,0c-2.91,0 -5.612,1.512 -7.134,3.993c-1.521,2.481 -1.645,5.575 -0.326,8.169c0,0 0,0 0,0.001c2.067,4.064 6.291,6.632 10.911,6.632l0.004,-0Zm159.763,-0c-13.012,-0 -24.977,-7.134 -31.164,-18.58c-11.887,-21.99 -30.086,-55.658 -30.086,-55.658l94.325,0c2.91,0 5.611,1.512 7.133,3.993c1.522,2.48 1.646,5.573 0.327,8.168c-0,0 -0,0.001 -0.001,0.001c-2.067,4.065 -6.291,6.633 -10.911,6.633l-59.667,-0c0,-0 0,0 0.001,0.002c3.173,5.793 9.252,9.395 15.857,9.395c9.078,-0 22.148,-0 31.973,-0c2.91,-0 5.612,1.512 7.133,3.993c1.522,2.481 1.646,5.574 0.327,8.168c-0,0.001 -0,0.001 -0,0.001c-2.067,4.065 -6.29,6.632 -10.911,6.632l-28.939,0c-0,0 0,0 0,0.001c2.856,5.214 8.328,8.456 14.273,8.456c1.23,0 2.507,0 3.785,0c2.911,0 5.612,1.512 7.134,3.993c1.522,2.481 1.645,5.575 0.326,8.169c0,0 0,0 -0,0.001c-2.067,4.064 -6.29,6.632 -10.911,6.632l-0.004,-0Z" style="fill:#fff;"/></g><defs><linearGradient id="_Linear1" x1="0" y1="0" x2="1" y2="0" gradientUnits="userSpaceOnUse" gradientTransform="matrix(247.437,268.554,-268.554,247.437,12.7804,5.7259)"><stop offset="0" style="stop-color:#6d24f3;stop-opacity:1"/><stop offset="1" style="stop-color:#ad81ff;stop-opacity:1"/></linearGradient></defs></svg>