<svg width="459" height="343" viewBox="0 0 459 343" fill="none" xmlns="http://www.w3.org/2000/svg">
<path fill-rule="evenodd" clip-rule="evenodd" d="M237.47 312.241C246.614 307.161 252.269 297.567 252.207 287.252C252.011 253.153 251.59 178.858 251.59 178.858C251.59 178.858 312.968 217.51 341.417 235.43C350.146 240.918 361.279 241.185 370.414 236.111L370.433 236.1C375.874 233.077 379.316 227.413 379.502 221.185C379.683 214.971 376.563 209.115 371.311 205.786C320.481 173.609 210.124 103.736 210.124 103.736C210.124 103.736 211.25 236.941 211.751 297.295C211.806 303.39 215.063 309.013 220.342 312.084C225.607 315.151 232.111 315.218 237.442 312.256C237.46 312.246 237.47 312.241 237.47 312.241ZM147.926 339.155C172.091 325.731 186.968 300.144 186.654 272.502C186.055 219.428 185.137 138.158 185.137 138.158L9.93111 235.49C4.53544 238.488 1.07626 244.077 0.812552 250.252C0.543705 256.417 3.49832 262.281 8.62815 265.738C8.62815 265.738 8.63328 265.747 8.64768 265.751C16.6673 271.161 27.1671 271.575 35.7464 266.808L146.566 205.245L146.556 205.25C146.647 219.278 139.066 232.229 126.793 239.047C109.931 248.414 85.6458 261.905 67.395 272.044C61.9993 275.042 58.5453 280.64 58.2764 286.806C58.0076 292.971 60.9673 298.844 66.0827 302.297C66.0971 302.301 66.0971 302.301 66.1023 302.31C74.1363 307.725 84.6309 308.128 93.2103 303.362L146.954 273.506C147.026 286.128 140.209 297.795 129.168 303.929C126.873 305.204 124.494 306.525 122.116 307.846C116.72 310.844 113.261 316.433 112.997 322.608C112.728 328.773 115.683 334.637 120.798 338.09C120.813 338.094 120.818 338.103 120.823 338.112C128.852 343.517 139.347 343.921 147.926 339.155ZM444.65 174.316C420.476 187.746 390.902 186.853 367.598 171.982C322.853 143.433 254.337 99.7161 254.337 99.7161L429.534 2.38917C434.939 -0.613416 441.512 -0.597294 446.894 2.44112C452.271 5.47028 455.688 11.0768 455.908 17.2493C455.913 17.2586 455.909 17.273 455.914 17.2822C456.261 26.9547 451.073 36.0826 442.494 40.8486L331.675 102.412C343.547 109.895 358.548 110.301 370.82 103.483C387.682 94.1155 411.968 80.6244 430.218 70.4856C435.614 67.4881 442.192 67.5135 447.569 70.5427C452.946 73.5719 456.368 79.1877 456.588 85.3602C456.593 85.3694 456.593 85.3694 456.589 85.3838C456.951 95.0604 451.749 104.184 443.169 108.95L389.426 138.806C389.426 138.806 389.426 138.806 389.431 138.816C400.109 145.545 413.611 145.912 424.643 139.784C426.938 138.509 429.317 137.187 431.705 135.861C437.1 132.864 443.673 132.88 449.055 135.918C454.432 138.947 457.849 144.554 458.069 150.726C458.074 150.736 458.079 150.745 458.075 150.759C458.431 160.427 453.23 169.55 444.65 174.316Z" fill="url(#paint0_radial_11_398)"/>
<defs>
<radialGradient id="paint0_radial_11_398" cx="0" cy="0" r="1" gradientUnits="userSpaceOnUse" gradientTransform="translate(243.511 119.908) rotate(67.9558) scale(166.441 438.799)">
<stop stop-color="#6D24F3"/>
<stop offset="1" stop-color="#F9F8FF"/>
</radialGradient>
</defs>
</svg>
